G04 #@! TF.GenerationSoftware,KiCad,Pcbnew,(5.1.6)-1*
G04 #@! TF.CreationDate,2020-09-06T23:44:10-05:00*
G04 #@! TF.ProjectId,Practice1,50726163-7469-4636-9531-2e6b69636164,rev?*
G04 #@! TF.SameCoordinates,Original*
G04 #@! TF.FileFunction,Copper,L2,Bot*
G04 #@! TF.FilePolarity,Positive*
%FSLAX46Y46*%
G04 Gerber Fmt 4.6, Leading zero omitted, Abs format (unit mm)*
G04 Created by KiCad (PCBNEW (5.1.6)-1) date 2020-09-06 23:44:10*
%MOMM*%
%LPD*%
G01*
G04 APERTURE LIST*
G04 #@! TA.AperFunction,ComponentPad*
%ADD10O,1.320800X2.641600*%
G04 #@! TD*
G04 #@! TA.AperFunction,ComponentPad*
%ADD11C,5.080000*%
G04 #@! TD*
G04 #@! TA.AperFunction,ComponentPad*
%ADD12C,1.998980*%
G04 #@! TD*
G04 #@! TA.AperFunction,ComponentPad*
%ADD13O,2.641600X1.320800*%
G04 #@! TD*
G04 #@! TA.AperFunction,ComponentPad*
%ADD14O,1.506220X3.014980*%
G04 #@! TD*
G04 #@! TA.AperFunction,ComponentPad*
%ADD15C,2.032000*%
G04 #@! TD*
G04 #@! TA.AperFunction,Conductor*
%ADD16C,0.250000*%
G04 #@! TD*
G04 APERTURE END LIST*
D10*
X131250000Y-232500000D03*
X128710000Y-232500000D03*
X126170000Y-232500000D03*
X123630000Y-232500000D03*
X121090000Y-232500000D03*
X118550000Y-232500000D03*
X116010000Y-232500000D03*
X113470000Y-232500000D03*
X110930000Y-232500000D03*
X108390000Y-232500000D03*
X105850000Y-232500000D03*
X103310000Y-232500000D03*
X100770000Y-232500000D03*
X98230000Y-232500000D03*
D11*
X99428300Y-43764200D03*
X74383900Y-43764200D03*
D12*
X91020900Y-42494200D03*
X88277700Y-42494200D03*
X85534500Y-42494200D03*
X82791300Y-42494200D03*
X92392500Y-45034200D03*
X89649300Y-45034200D03*
X86906100Y-45034200D03*
X84162900Y-45034200D03*
X81419700Y-45034200D03*
D13*
X86190000Y-93890000D03*
X86190000Y-91350000D03*
X86190000Y-88810000D03*
X86190000Y-86270000D03*
X86190000Y-83730000D03*
X86190000Y-81190000D03*
X86190000Y-78650000D03*
X86190000Y-76110000D03*
X93810000Y-76110000D03*
X93810000Y-78650000D03*
X93810000Y-81190000D03*
X93810000Y-83730000D03*
X93810000Y-86270000D03*
X93810000Y-88810000D03*
X93810000Y-91350000D03*
X93810000Y-93890000D03*
X76250000Y-210040000D03*
X76250000Y-207500000D03*
X76250000Y-204960000D03*
D14*
X170748660Y-174997900D03*
X164251340Y-174997900D03*
X170748660Y-170502100D03*
X164251340Y-170502100D03*
X170748660Y-158497900D03*
X164251340Y-158497900D03*
X170748660Y-154002100D03*
X164251340Y-154002100D03*
X170748660Y-140997900D03*
X164251340Y-140997900D03*
X170748660Y-136502100D03*
X164251340Y-136502100D03*
X170998660Y-124997900D03*
X164501340Y-124997900D03*
X170998660Y-120502100D03*
X164501340Y-120502100D03*
X171498660Y-108997900D03*
X165001340Y-108997900D03*
X171498660Y-104502100D03*
X165001340Y-104502100D03*
X171248660Y-92747900D03*
X164751340Y-92747900D03*
X171248660Y-88252100D03*
X164751340Y-88252100D03*
X171497320Y-78245800D03*
X165000000Y-78245800D03*
X171497320Y-73750000D03*
X165000000Y-73750000D03*
X171997320Y-62997900D03*
X165500000Y-62997900D03*
X171997320Y-58502100D03*
X165500000Y-58502100D03*
D15*
X69540000Y-236580000D03*
X67000000Y-226420000D03*
X64460000Y-236580000D03*
X54040000Y-236580000D03*
X51500000Y-226420000D03*
X48960000Y-236580000D03*
X105330000Y-200210000D03*
X95170000Y-202750000D03*
X105330000Y-205290000D03*
X143190000Y-179750000D03*
X150810000Y-179750000D03*
X142690000Y-162250000D03*
X150310000Y-162250000D03*
X142690000Y-146000000D03*
X150310000Y-146000000D03*
X142690000Y-127000000D03*
X150310000Y-127000000D03*
X142690000Y-111000000D03*
X150310000Y-111000000D03*
X142940000Y-95250000D03*
X150560000Y-95250000D03*
X142690000Y-78250000D03*
X150310000Y-78250000D03*
X143440000Y-61750000D03*
X151060000Y-61750000D03*
X133190000Y-170750000D03*
X140810000Y-170750000D03*
X133690000Y-153500000D03*
X141310000Y-153500000D03*
X134940000Y-135250000D03*
X142560000Y-135250000D03*
X135440000Y-117250000D03*
X143060000Y-117250000D03*
X135250000Y-102250000D03*
X142870000Y-102250000D03*
X135440000Y-86000000D03*
X143060000Y-86000000D03*
X136190000Y-70000000D03*
X143810000Y-70000000D03*
X136130000Y-54750000D03*
X143750000Y-54750000D03*
X50500000Y-162620000D03*
X50500000Y-155000000D03*
X59000000Y-162370000D03*
X59000000Y-154750000D03*
X67500000Y-161810000D03*
X67500000Y-154190000D03*
X75250000Y-161500000D03*
X75250000Y-153880000D03*
X84000000Y-161060000D03*
X84000000Y-153440000D03*
X92750000Y-160810000D03*
X92750000Y-153190000D03*
X101750000Y-160560000D03*
X101750000Y-152940000D03*
X110500000Y-160560000D03*
X110500000Y-152940000D03*
X69250000Y-90420000D03*
X69250000Y-100580000D03*
D10*
X62040000Y-213000000D03*
X59500000Y-213000000D03*
X56960000Y-213000000D03*
D13*
X116500000Y-106390000D03*
X116500000Y-103850000D03*
X116500000Y-101310000D03*
X116500000Y-98770000D03*
X116500000Y-96230000D03*
X116500000Y-93690000D03*
X116500000Y-91150000D03*
X116500000Y-88610000D03*
D10*
X131330000Y-220000000D03*
X128790000Y-220000000D03*
X126250000Y-220000000D03*
X123710000Y-220000000D03*
X121170000Y-220000000D03*
X118630000Y-220000000D03*
X116090000Y-220000000D03*
X113550000Y-220000000D03*
X111010000Y-220000000D03*
X108470000Y-220000000D03*
X105930000Y-220000000D03*
X92080000Y-177000000D03*
X89540000Y-177000000D03*
X87000000Y-177000000D03*
X84460000Y-177000000D03*
X81920000Y-177000000D03*
X79380000Y-177000000D03*
X76840000Y-177000000D03*
X74300000Y-177000000D03*
X53790000Y-82250000D03*
X51250000Y-82250000D03*
X48710000Y-82250000D03*
X54040000Y-68750000D03*
X51500000Y-68750000D03*
X48960000Y-68750000D03*
D13*
X61750000Y-94250000D03*
X61750000Y-91710000D03*
X158250000Y-219610000D03*
X158250000Y-222150000D03*
X158250000Y-224690000D03*
X158250000Y-227230000D03*
X158250000Y-229770000D03*
X158250000Y-232310000D03*
X158250000Y-234850000D03*
X158250000Y-237390000D03*
X173500000Y-219610000D03*
X173500000Y-222150000D03*
X173500000Y-224690000D03*
X173500000Y-227230000D03*
X173500000Y-229770000D03*
X173500000Y-232310000D03*
X173500000Y-234850000D03*
X173500000Y-237390000D03*
D15*
X110500000Y-141270000D03*
X110500000Y-138730000D03*
X101750000Y-141270000D03*
X101750000Y-138730000D03*
X92750000Y-141250000D03*
X92750000Y-138710000D03*
X84000000Y-141020000D03*
X84000000Y-138480000D03*
X75500000Y-141020000D03*
X75500000Y-138480000D03*
X67500000Y-141020000D03*
X67500000Y-138480000D03*
X59000000Y-141020000D03*
X59000000Y-138480000D03*
X50500000Y-141020000D03*
X50500000Y-138480000D03*
X69250000Y-79750000D03*
X69250000Y-77210000D03*
D12*
X78500000Y-94020000D03*
X78500000Y-91480000D03*
X101750000Y-76230000D03*
X101750000Y-78770000D03*
X91020000Y-102250000D03*
X88480000Y-102250000D03*
X102250000Y-86250000D03*
X102250000Y-83710000D03*
X101750000Y-93750000D03*
X101750000Y-91210000D03*
D16*
X93950000Y-93750000D02*
X93810000Y-93890000D01*
X101750000Y-93750000D02*
X93950000Y-93750000D01*
X101750000Y-91210000D02*
X99460000Y-91210000D01*
X97060000Y-88810000D02*
X93810000Y-88810000D01*
X99460000Y-91210000D02*
X97060000Y-88810000D01*
X93830000Y-86250000D02*
X93810000Y-86270000D01*
X102250000Y-86250000D02*
X93830000Y-86250000D01*
X93830000Y-83710000D02*
X93810000Y-83730000D01*
X102250000Y-83710000D02*
X93830000Y-83710000D01*
X91020000Y-102250000D02*
X91020000Y-91520000D01*
X91190000Y-91350000D02*
X93810000Y-91350000D01*
X91020000Y-91520000D02*
X91190000Y-91350000D01*
X100770000Y-232500000D02*
X100770000Y-235770000D01*
X100770000Y-235770000D02*
X102750000Y-237750000D01*
X134250000Y-237750000D02*
X140500000Y-231500000D01*
X140500000Y-231500000D02*
X140500000Y-210750000D01*
X140500000Y-210750000D02*
X135040000Y-205290000D01*
X69540000Y-236580000D02*
X69540000Y-239210000D01*
X69540000Y-239210000D02*
X68000000Y-240750000D01*
X68000000Y-240750000D02*
X50000000Y-240750000D01*
X48960000Y-239710000D02*
X48960000Y-236580000D01*
X50000000Y-240750000D02*
X48960000Y-239710000D01*
X103000000Y-237750000D02*
X77000000Y-237750000D01*
X103000000Y-237750000D02*
X134250000Y-237750000D01*
X102750000Y-237750000D02*
X103000000Y-237750000D01*
X74000000Y-240750000D02*
X68000000Y-240750000D01*
X77000000Y-237750000D02*
X74000000Y-240750000D01*
X88480000Y-102250000D02*
X86480000Y-100250000D01*
X86480000Y-94180000D02*
X86190000Y-93890000D01*
X86480000Y-100250000D02*
X86480000Y-94180000D01*
X78630000Y-93890000D02*
X78500000Y-94020000D01*
X86190000Y-93890000D02*
X78630000Y-93890000D01*
X78500000Y-94020000D02*
X78500000Y-97250000D01*
X75170000Y-100580000D02*
X69250000Y-100580000D01*
X78500000Y-97250000D02*
X75170000Y-100580000D01*
X54040000Y-68750000D02*
X51500000Y-68750000D01*
X48960000Y-68750000D02*
X51500000Y-68750000D01*
X48960000Y-68750000D02*
X46250000Y-68750000D01*
X46250000Y-68750000D02*
X43000000Y-72000000D01*
X43000000Y-72000000D02*
X43000000Y-94750000D01*
X48830000Y-100580000D02*
X69250000Y-100580000D01*
X48960000Y-236580000D02*
X46080000Y-236580000D01*
X46080000Y-236580000D02*
X40000000Y-230500000D01*
X40000000Y-100250000D02*
X44000000Y-96250000D01*
X44000000Y-95750000D02*
X43875000Y-95625000D01*
X44000000Y-96250000D02*
X44000000Y-95750000D01*
X43000000Y-94750000D02*
X43875000Y-95625000D01*
X43875000Y-95625000D02*
X48830000Y-100580000D01*
X76250000Y-204960000D02*
X76250000Y-195250000D01*
X76250000Y-195250000D02*
X71500000Y-190500000D01*
X45000000Y-190500000D02*
X40000000Y-185500000D01*
X71500000Y-190500000D02*
X45000000Y-190500000D01*
X40000000Y-230500000D02*
X40000000Y-185500000D01*
X40000000Y-185500000D02*
X40000000Y-100250000D01*
X142000000Y-61750000D02*
X140750000Y-61750000D01*
X142000000Y-61750000D02*
X141750000Y-61750000D01*
X143440000Y-61750000D02*
X142000000Y-61750000D01*
X140750000Y-61750000D02*
X139250000Y-63250000D01*
X139250000Y-63250000D02*
X139250000Y-74000000D01*
X142690000Y-77440000D02*
X142690000Y-78250000D01*
X139250000Y-74000000D02*
X142690000Y-77440000D01*
X142690000Y-78250000D02*
X140750000Y-78250000D01*
X140750000Y-78250000D02*
X138750000Y-80250000D01*
X138750000Y-80250000D02*
X138750000Y-88000000D01*
X142940000Y-92190000D02*
X142940000Y-95250000D01*
X138750000Y-88000000D02*
X142940000Y-92190000D01*
X142940000Y-95250000D02*
X141250000Y-95250000D01*
X141250000Y-95250000D02*
X138750000Y-97750000D01*
X138750000Y-107060000D02*
X142690000Y-111000000D01*
X138750000Y-97750000D02*
X138750000Y-107060000D01*
X142690000Y-111000000D02*
X140500000Y-111000000D01*
X140500000Y-111000000D02*
X138750000Y-112750000D01*
X138750000Y-123060000D02*
X142690000Y-127000000D01*
X138750000Y-112750000D02*
X138750000Y-123060000D01*
X138750000Y-141750000D02*
X142690000Y-145690000D01*
X142690000Y-127000000D02*
X138750000Y-130940000D01*
X142690000Y-145690000D02*
X142690000Y-146000000D01*
X138750000Y-130940000D02*
X138750000Y-141750000D01*
X142690000Y-146000000D02*
X140000000Y-146000000D01*
X140000000Y-146000000D02*
X138500000Y-147500000D01*
X138500000Y-158060000D02*
X142690000Y-162250000D01*
X138500000Y-147500000D02*
X138500000Y-158060000D01*
X142690000Y-162250000D02*
X140250000Y-162250000D01*
X140250000Y-162250000D02*
X137500000Y-165000000D01*
X137500000Y-174060000D02*
X143190000Y-179750000D01*
X137500000Y-165000000D02*
X137500000Y-174060000D01*
X135040000Y-205290000D02*
X129790000Y-205290000D01*
X143190000Y-191890000D02*
X129790000Y-205290000D01*
X143190000Y-179750000D02*
X143190000Y-191890000D01*
X129790000Y-205290000D02*
X105330000Y-205290000D01*
X54040000Y-236580000D02*
X64460000Y-236580000D01*
X76250000Y-210040000D02*
X75710000Y-210040000D01*
X75710000Y-210040000D02*
X73250000Y-212500000D01*
X75000000Y-232500000D02*
X98230000Y-232500000D01*
X73250000Y-230750000D02*
X75000000Y-232500000D01*
X64460000Y-236580000D02*
X64460000Y-232790000D01*
X73250000Y-224000000D02*
X73250000Y-223250000D01*
X73250000Y-212500000D02*
X73250000Y-223250000D01*
X64460000Y-232790000D02*
X73250000Y-224000000D01*
X73250000Y-223250000D02*
X73250000Y-230750000D01*
X76250000Y-210040000D02*
X78460000Y-210040000D01*
X88290000Y-200210000D02*
X105330000Y-200210000D01*
X78460000Y-210040000D02*
X88290000Y-200210000D01*
X105330000Y-200210000D02*
X119540000Y-200210000D01*
X119540000Y-200210000D02*
X120500000Y-199250000D01*
X120500000Y-148730000D02*
X110500000Y-138730000D01*
X120500000Y-199250000D02*
X120500000Y-148730000D01*
X92770000Y-138730000D02*
X92750000Y-138710000D01*
X101750000Y-138730000D02*
X92770000Y-138730000D01*
X84230000Y-138710000D02*
X84000000Y-138480000D01*
X92750000Y-138710000D02*
X84230000Y-138710000D01*
X84000000Y-138480000D02*
X75500000Y-138480000D01*
X75500000Y-138480000D02*
X67500000Y-138480000D01*
X67500000Y-138480000D02*
X59000000Y-138480000D01*
X59000000Y-138480000D02*
X50500000Y-138480000D01*
X78630000Y-91350000D02*
X78500000Y-91480000D01*
X86190000Y-91350000D02*
X78630000Y-91350000D01*
X53790000Y-82250000D02*
X51250000Y-82250000D01*
X48710000Y-82250000D02*
X51250000Y-82250000D01*
X48710000Y-82250000D02*
X48710000Y-92460000D01*
X48710000Y-92460000D02*
X53500000Y-97250000D01*
X53500000Y-97250000D02*
X70500000Y-97250000D01*
X76270000Y-91480000D02*
X78500000Y-91480000D01*
X70500000Y-97250000D02*
X76270000Y-91480000D01*
X106020000Y-138730000D02*
X106020000Y-133980000D01*
X106020000Y-138730000D02*
X101750000Y-138730000D01*
X110500000Y-138730000D02*
X106020000Y-138730000D01*
X106020000Y-133980000D02*
X110750000Y-129250000D01*
X110750000Y-40500000D02*
X109750000Y-39500000D01*
X109750000Y-39500000D02*
X67500000Y-39500000D01*
X67500000Y-39500000D02*
X66250000Y-40750000D01*
X66250000Y-40750000D02*
X66250000Y-63000000D01*
X66250000Y-63000000D02*
X59000000Y-70250000D01*
X59000000Y-77040000D02*
X53790000Y-82250000D01*
X59000000Y-70250000D02*
X59000000Y-77040000D01*
X92392500Y-45034200D02*
X92392500Y-53642500D01*
X92392500Y-53642500D02*
X93250000Y-54500000D01*
X101750000Y-59250000D02*
X106500000Y-54500000D01*
X101750000Y-76230000D02*
X101750000Y-59250000D01*
X93250000Y-54500000D02*
X106500000Y-54500000D01*
X106500000Y-54500000D02*
X110500000Y-54500000D01*
X112000000Y-39500000D02*
X110750000Y-40750000D01*
X168000000Y-39500000D02*
X112000000Y-39500000D01*
X168250000Y-39750000D02*
X168000000Y-39500000D01*
X110750000Y-40750000D02*
X110750000Y-40500000D01*
X164251340Y-170502100D02*
X166747900Y-170502100D01*
X166747900Y-170502100D02*
X168250000Y-169000000D01*
X110750000Y-129250000D02*
X110750000Y-54500000D01*
X110500000Y-54500000D02*
X110750000Y-54500000D01*
X110750000Y-54500000D02*
X110750000Y-40750000D01*
X164251340Y-154002100D02*
X166747900Y-154002100D01*
X168250000Y-152500000D02*
X168250000Y-151250000D01*
X166747900Y-154002100D02*
X168250000Y-152500000D01*
X168250000Y-169000000D02*
X168250000Y-151250000D01*
X164251340Y-136502100D02*
X166747900Y-136502100D01*
X166747900Y-136502100D02*
X168250000Y-135000000D01*
X168250000Y-151250000D02*
X168250000Y-134750000D01*
X168250000Y-135000000D02*
X168250000Y-134750000D01*
X165001340Y-104502100D02*
X166997900Y-104502100D01*
X168250000Y-103250000D02*
X168250000Y-102750000D01*
X166997900Y-104502100D02*
X168250000Y-103250000D01*
X164501340Y-120502100D02*
X166502100Y-120502100D01*
X166502100Y-120502100D02*
X168004200Y-119000000D01*
X168250000Y-134750000D02*
X168250000Y-119000000D01*
X168004200Y-119000000D02*
X168250000Y-119000000D01*
X168250000Y-119000000D02*
X168250000Y-102750000D01*
X164751340Y-88252100D02*
X166752100Y-88252100D01*
X166752100Y-88252100D02*
X168250000Y-86754200D01*
X168250000Y-102750000D02*
X168250000Y-85500000D01*
X168250000Y-86754200D02*
X168250000Y-85500000D01*
X165000000Y-73750000D02*
X166500000Y-73750000D01*
X168250000Y-72000000D02*
X168250000Y-71750000D01*
X166500000Y-73750000D02*
X168250000Y-72000000D01*
X168250000Y-85500000D02*
X168250000Y-71750000D01*
X165500000Y-58502100D02*
X167247900Y-58502100D01*
X168250000Y-57500000D02*
X168250000Y-56750000D01*
X168250000Y-71750000D02*
X168250000Y-56750000D01*
X167247900Y-58502100D02*
X168250000Y-57500000D01*
X168250000Y-56750000D02*
X168250000Y-39750000D01*
X101750000Y-78770000D02*
X99020000Y-81500000D01*
X94120000Y-81500000D02*
X93810000Y-81190000D01*
X99020000Y-81500000D02*
X94120000Y-81500000D01*
X69250000Y-79750000D02*
X69250000Y-90420000D01*
X61750000Y-91710000D02*
X62290000Y-91710000D01*
X62290000Y-91710000D02*
X64750000Y-89250000D01*
X64750000Y-81710000D02*
X69250000Y-77210000D01*
X64750000Y-89250000D02*
X64750000Y-81710000D01*
X69250000Y-77210000D02*
X80290000Y-77210000D01*
X80290000Y-77210000D02*
X81000000Y-76500000D01*
X85800000Y-76500000D02*
X86190000Y-76110000D01*
X81000000Y-76500000D02*
X85800000Y-76500000D01*
X50500000Y-141020000D02*
X50500000Y-155000000D01*
X59000000Y-141020000D02*
X59000000Y-154750000D01*
X67500000Y-141020000D02*
X67500000Y-154190000D01*
X75500000Y-153630000D02*
X75250000Y-153880000D01*
X75500000Y-141020000D02*
X75500000Y-153630000D01*
X84000000Y-141020000D02*
X84000000Y-152250000D01*
X84000000Y-152250000D02*
X84000000Y-153440000D01*
X92750000Y-141250000D02*
X92750000Y-153190000D01*
X101750000Y-141270000D02*
X101750000Y-152940000D01*
X110500000Y-141270000D02*
X110500000Y-152940000D01*
X158250000Y-219610000D02*
X173500000Y-219610000D01*
X158250000Y-222150000D02*
X173500000Y-222150000D01*
X158250000Y-224690000D02*
X173500000Y-224690000D01*
X158250000Y-227230000D02*
X173500000Y-227230000D01*
X158250000Y-229770000D02*
X173500000Y-229770000D01*
X158250000Y-232310000D02*
X173500000Y-232310000D01*
X158250000Y-234850000D02*
X173500000Y-234850000D01*
X158250000Y-237390000D02*
X173500000Y-237390000D01*
X61750000Y-94250000D02*
X71250000Y-94250000D01*
X71250000Y-94250000D02*
X73750000Y-91750000D01*
X73750000Y-91750000D02*
X73750000Y-84000000D01*
X79100000Y-78650000D02*
X86190000Y-78650000D01*
X73750000Y-84000000D02*
X79100000Y-78650000D01*
X110500000Y-160560000D02*
X110500000Y-166750000D01*
X100250000Y-177000000D02*
X92080000Y-177000000D01*
X110500000Y-166750000D02*
X100250000Y-177000000D01*
X101750000Y-160560000D02*
X101750000Y-164000000D01*
X101750000Y-164000000D02*
X92750000Y-173000000D01*
X92750000Y-173000000D02*
X89750000Y-173000000D01*
X89540000Y-173210000D02*
X89540000Y-177000000D01*
X89750000Y-173000000D02*
X89540000Y-173210000D01*
X92750000Y-160810000D02*
X87000000Y-166560000D01*
X87000000Y-166560000D02*
X87000000Y-177000000D01*
X84000000Y-176540000D02*
X84460000Y-177000000D01*
X84000000Y-161060000D02*
X84000000Y-176540000D01*
X75250000Y-161500000D02*
X75250000Y-164500000D01*
X81920000Y-171170000D02*
X81920000Y-177000000D01*
X75250000Y-164500000D02*
X81920000Y-171170000D01*
X67500000Y-161810000D02*
X67500000Y-163750000D01*
X67500000Y-163750000D02*
X69250000Y-165500000D01*
X69250000Y-166870000D02*
X79380000Y-177000000D01*
X69250000Y-165500000D02*
X69250000Y-166870000D01*
X59000000Y-162370000D02*
X59000000Y-165250000D01*
X59000000Y-165250000D02*
X67250000Y-173500000D01*
X73340000Y-173500000D02*
X76840000Y-177000000D01*
X67250000Y-173500000D02*
X73340000Y-173500000D01*
X74300000Y-177000000D02*
X61250000Y-177000000D01*
X50500000Y-166250000D02*
X50500000Y-162620000D01*
X61250000Y-177000000D02*
X50500000Y-166250000D01*
X126250000Y-232420000D02*
X126170000Y-232500000D01*
X126250000Y-220000000D02*
X126250000Y-232420000D01*
X123710000Y-232420000D02*
X123630000Y-232500000D01*
X123710000Y-220000000D02*
X123710000Y-232420000D01*
X121170000Y-232420000D02*
X121090000Y-232500000D01*
X121170000Y-220000000D02*
X121170000Y-232420000D01*
X118630000Y-232420000D02*
X118550000Y-232500000D01*
X118630000Y-220000000D02*
X118630000Y-232420000D01*
X116090000Y-232420000D02*
X116010000Y-232500000D01*
X116090000Y-220000000D02*
X116090000Y-232420000D01*
X113550000Y-232420000D02*
X113470000Y-232500000D01*
X113550000Y-220000000D02*
X113550000Y-232420000D01*
X111010000Y-232420000D02*
X110930000Y-232500000D01*
X111010000Y-220000000D02*
X111010000Y-232420000D01*
X108470000Y-232420000D02*
X108390000Y-232500000D01*
X108470000Y-220000000D02*
X108470000Y-232420000D01*
X105930000Y-232420000D02*
X105850000Y-232500000D01*
X105930000Y-220000000D02*
X105930000Y-232420000D01*
X95170000Y-202750000D02*
X90000000Y-202750000D01*
X90000000Y-202750000D02*
X88750000Y-204000000D01*
X88750000Y-204000000D02*
X88750000Y-212250000D01*
X103310000Y-226810000D02*
X103310000Y-232500000D01*
X88750000Y-212250000D02*
X103310000Y-226810000D01*
X116500000Y-106390000D02*
X118890000Y-106390000D01*
X118890000Y-106390000D02*
X122250000Y-109750000D01*
X122250000Y-109750000D02*
X122250000Y-139500000D01*
X122250000Y-139500000D02*
X128750000Y-146000000D01*
X128750000Y-146000000D02*
X128750000Y-160250000D01*
X133190000Y-164690000D02*
X133190000Y-170750000D01*
X128750000Y-160250000D02*
X133190000Y-164690000D01*
X116500000Y-103850000D02*
X122350000Y-103850000D01*
X122350000Y-103850000D02*
X125000000Y-106500000D01*
X125000000Y-106500000D02*
X125000000Y-123750000D01*
X125000000Y-123750000D02*
X131750000Y-130500000D01*
X131750000Y-151560000D02*
X133690000Y-153500000D01*
X131750000Y-130500000D02*
X131750000Y-151560000D01*
X134940000Y-135250000D02*
X134940000Y-125940000D01*
X134940000Y-125940000D02*
X127250000Y-118250000D01*
X127250000Y-118250000D02*
X127250000Y-104250000D01*
X124310000Y-101310000D02*
X116500000Y-101310000D01*
X127250000Y-104250000D02*
X124310000Y-101310000D01*
X135440000Y-117250000D02*
X135440000Y-115440000D01*
X135440000Y-115440000D02*
X131000000Y-111000000D01*
X131000000Y-111000000D02*
X131000000Y-101750000D01*
X128020000Y-98770000D02*
X116500000Y-98770000D01*
X131000000Y-101750000D02*
X128020000Y-98770000D01*
X135250000Y-102250000D02*
X135250000Y-98250000D01*
X133230000Y-96230000D02*
X116500000Y-96230000D01*
X135250000Y-98250000D02*
X133230000Y-96230000D01*
X121750000Y-88250000D02*
X121750000Y-92500000D01*
X135440000Y-86000000D02*
X124000000Y-86000000D01*
X120560000Y-93690000D02*
X116500000Y-93690000D01*
X121750000Y-92500000D02*
X120560000Y-93690000D01*
X124000000Y-86000000D02*
X121750000Y-88250000D01*
X119500000Y-74750000D02*
X119500000Y-88150000D01*
X119500000Y-88150000D02*
X116500000Y-91150000D01*
X136190000Y-70000000D02*
X124250000Y-70000000D01*
X124250000Y-70000000D02*
X119500000Y-74750000D01*
X116500000Y-88610000D02*
X116500000Y-67500000D01*
X129250000Y-54750000D02*
X136130000Y-54750000D01*
X116500000Y-67500000D02*
X129250000Y-54750000D01*
X62040000Y-213000000D02*
X64500000Y-213000000D01*
X67000000Y-215500000D02*
X67000000Y-226420000D01*
X64500000Y-213000000D02*
X67000000Y-215500000D01*
X59500000Y-213000000D02*
X59500000Y-209250000D01*
X59500000Y-209250000D02*
X62250000Y-206500000D01*
X62250000Y-206500000D02*
X71250000Y-206500000D01*
X72250000Y-207500000D02*
X76250000Y-207500000D01*
X71250000Y-206500000D02*
X72250000Y-207500000D01*
X56960000Y-213000000D02*
X55000000Y-213000000D01*
X51500000Y-216500000D02*
X51500000Y-226420000D01*
X55000000Y-213000000D02*
X51500000Y-216500000D01*
X150750000Y-61750000D02*
X151060000Y-61750000D01*
X143750000Y-54750000D02*
X150750000Y-61750000D01*
X164252100Y-61750000D02*
X165500000Y-62997900D01*
X151060000Y-61750000D02*
X164252100Y-61750000D01*
X143810000Y-71750000D02*
X150310000Y-78250000D01*
X143810000Y-70000000D02*
X143810000Y-71750000D01*
X150310000Y-78250000D02*
X164000000Y-78250000D01*
X164004200Y-78245800D02*
X165000000Y-78245800D01*
X164000000Y-78250000D02*
X164004200Y-78245800D01*
X162249240Y-95250000D02*
X164751340Y-92747900D01*
X150560000Y-95250000D02*
X162249240Y-95250000D01*
X143060000Y-86000000D02*
X149310000Y-92250000D01*
X149310000Y-94000000D02*
X150560000Y-95250000D01*
X149310000Y-92250000D02*
X149310000Y-94000000D01*
X162999240Y-111000000D02*
X165001340Y-108997900D01*
X150310000Y-111000000D02*
X162999240Y-111000000D01*
X142870000Y-102250000D02*
X149000000Y-108380000D01*
X149000000Y-109690000D02*
X150310000Y-111000000D01*
X149000000Y-108380000D02*
X149000000Y-109690000D01*
X162499240Y-127000000D02*
X164501340Y-124997900D01*
X150310000Y-127000000D02*
X162499240Y-127000000D01*
X143060000Y-117250000D02*
X145500000Y-117250000D01*
X150310000Y-122060000D02*
X150310000Y-127000000D01*
X145500000Y-117250000D02*
X150310000Y-122060000D01*
X159249240Y-146000000D02*
X164251340Y-140997900D01*
X150310000Y-146000000D02*
X159249240Y-146000000D01*
X142560000Y-135250000D02*
X145500000Y-135250000D01*
X150310000Y-140060000D02*
X150310000Y-146000000D01*
X145500000Y-135250000D02*
X150310000Y-140060000D01*
X160499240Y-162250000D02*
X164251340Y-158497900D01*
X150310000Y-162250000D02*
X160499240Y-162250000D01*
X141310000Y-153500000D02*
X146500000Y-153500000D01*
X150310000Y-157310000D02*
X150310000Y-162250000D01*
X146500000Y-153500000D02*
X150310000Y-157310000D01*
X159499240Y-179750000D02*
X164251340Y-174997900D01*
X150810000Y-179750000D02*
X159499240Y-179750000D01*
X140810000Y-170750000D02*
X145500000Y-170750000D01*
X150810000Y-176060000D02*
X150810000Y-179750000D01*
X145500000Y-170750000D02*
X150810000Y-176060000D01*
X86906100Y-45034200D02*
X86906100Y-54906100D01*
X86906100Y-54906100D02*
X93750000Y-61750000D01*
X93750000Y-76050000D02*
X93810000Y-76110000D01*
X93750000Y-61750000D02*
X93750000Y-76050000D01*
X84162900Y-45034200D02*
X84162900Y-61837100D01*
X84162900Y-61837100D02*
X90750000Y-68424200D01*
X90750000Y-68424200D02*
X90750000Y-77500000D01*
X92660000Y-77500000D02*
X93810000Y-78650000D01*
X90750000Y-77500000D02*
X92660000Y-77500000D01*
X131330000Y-232420000D02*
X131250000Y-232500000D01*
X131330000Y-220000000D02*
X131330000Y-232420000D01*
X128790000Y-232420000D02*
X128710000Y-232500000D01*
X128790000Y-220000000D02*
X128790000Y-232420000D01*
M02*
