M48
; DRILL file {KiCad (5.1.6)-1} date 09/06/20 23:44:55
; FORMAT={-:-/ absolute / inch / decimal}
; #@! TF.CreationDate,2020-09-06T23:44:55-05:00
; #@! TF.GenerationSoftware,Kicad,Pcbnew,(5.1.6)-1
FMAT,2
INCH
T1C0.0315
T2C0.0320
T3C0.0350
T4C0.0393
T5C0.0400
T6C0.0500
T7C0.1300
%
G90
G05
T1
X3.0906Y-3.6016
X4.0059Y-3.0012
X4.0059Y-3.1012
X4.0059Y-3.5909
X4.0059Y-3.6909
X4.0256Y-3.2957
X4.0256Y-3.3957
X3.0906Y-3.7016
X3.4835Y-4.0256
X3.5835Y-4.0256
T2
X2.6575Y-5.452
X2.6575Y-5.552
X5.6472Y-2.4311
X5.9472Y-2.4311
X4.0059Y-6.0213
X4.0059Y-6.3213
X3.6516Y-5.461
X3.6516Y-5.561
X5.3323Y-4.6161
X5.6323Y-4.6161
X2.7264Y-3.5598
X2.7264Y-3.9598
X5.3618Y-2.7559
X5.6618Y-2.7559
X3.6516Y-6.0311
X3.6516Y-6.3311
X2.3228Y-5.452
X2.3228Y-5.552
X2.7264Y-3.0398
X2.7264Y-3.1398
X3.3933Y-2.9965
X3.3933Y-3.0965
X3.3933Y-3.1965
X3.3933Y-3.2965
X3.3933Y-3.3965
X3.3933Y-3.4965
X3.3933Y-3.5965
X3.3933Y-3.6965
X3.6933Y-2.9965
X3.6933Y-3.0965
X3.6933Y-3.1965
X3.6933Y-3.2965
X3.6933Y-3.3965
X3.6933Y-3.4965
X3.6933Y-3.5965
X3.6933Y-3.6965
X5.3594Y-2.1555
X5.6594Y-2.1555
X5.6177Y-5.748
X5.9177Y-5.748
X1.9882Y-6.1024
X1.9882Y-6.4024
X3.3071Y-5.452
X3.3071Y-5.552
X5.2634Y-6.0433
X5.5634Y-6.0433
X5.6374Y-7.0768
X5.9374Y-7.0768
X2.6575Y-6.0705
X2.6575Y-6.3705
X4.0059Y-5.4618
X4.0059Y-5.5618
X5.3323Y-3.3858
X5.6323Y-3.3858
X2.9626Y-6.0583
X2.9626Y-6.3583
X5.6177Y-5.0
X5.9177Y-5.0
X3.002Y-8.0693
X3.002Y-8.1693
X3.002Y-8.2693
X1.9882Y-5.452
X1.9882Y-5.552
X5.6177Y-6.3878
X5.9177Y-6.3878
X2.3228Y-6.0925
X2.3228Y-6.3925
X5.6177Y-3.0807
X5.9177Y-3.0807
X2.9724Y-5.452
X2.9724Y-5.552
X5.3248Y-4.0256
X5.6248Y-4.0256
X5.6276Y-3.75
X5.9276Y-3.75
X3.3071Y-6.0409
X3.3071Y-6.3409
X5.3126Y-5.3248
X5.6126Y-5.3248
X4.3504Y-6.0213
X4.3504Y-6.3213
X4.3504Y-5.4618
X4.3504Y-5.5618
X5.2437Y-6.7224
X5.5437Y-6.7224
X5.6177Y-4.3701
X5.9177Y-4.3701
T3
X1.9177Y-3.2382
X2.0177Y-3.2382
X2.1177Y-3.2382
X4.5866Y-3.4886
X4.5866Y-3.5886
X4.5866Y-3.6886
X4.5866Y-3.7886
X4.5866Y-3.8886
X4.5866Y-3.9886
X4.5866Y-4.0886
X4.5866Y-4.1886
X6.2303Y-8.6461
X6.2303Y-8.7461
X6.2303Y-8.8461
X6.2303Y-8.9461
X6.2303Y-9.0461
X6.2303Y-9.1461
X6.2303Y-9.2461
X6.2303Y-9.3461
X2.4311Y-3.6106
X2.4311Y-3.7106
X3.8673Y-9.1535
X3.9673Y-9.1535
X4.0673Y-9.1535
X4.1673Y-9.1535
X4.2673Y-9.1535
X4.3673Y-9.1535
X4.4673Y-9.1535
X4.5673Y-9.1535
X4.6673Y-9.1535
X4.7673Y-9.1535
X4.8673Y-9.1535
X4.9673Y-9.1535
X5.0673Y-9.1535
X5.1673Y-9.1535
X6.8307Y-8.6461
X6.8307Y-8.7461
X6.8307Y-8.8461
X6.8307Y-8.9461
X6.8307Y-9.0461
X6.8307Y-9.1461
X6.8307Y-9.2461
X6.8307Y-9.3461
X2.9252Y-6.9685
X3.0252Y-6.9685
X3.1252Y-6.9685
X3.2252Y-6.9685
X3.3252Y-6.9685
X3.4252Y-6.9685
X3.5252Y-6.9685
X3.6252Y-6.9685
X2.2425Y-8.3858
X2.3425Y-8.3858
X2.4425Y-8.3858
X1.9276Y-2.7067
X2.0276Y-2.7067
X2.1276Y-2.7067
X4.1705Y-8.6614
X4.2705Y-8.6614
X4.3705Y-8.6614
X4.4705Y-8.6614
X4.5705Y-8.6614
X4.6705Y-8.6614
X4.7705Y-8.6614
X4.8705Y-8.6614
X4.9705Y-8.6614
X5.0705Y-8.6614
X5.1705Y-8.6614
T4
X6.4863Y-3.4745
X6.4863Y-3.6515
X6.7421Y-3.4745
X6.7421Y-3.6515
X6.4666Y-6.7127
X6.4666Y-6.8897
X6.7224Y-6.7127
X6.7224Y-6.8897
X6.4666Y-5.3741
X6.4666Y-5.5511
X6.7224Y-5.3741
X6.7224Y-5.5511
X6.4961Y-2.9035
X6.4961Y-3.0805
X6.7519Y-2.9035
X6.7519Y-3.0805
X6.4764Y-4.7442
X6.4764Y-4.9212
X6.7322Y-4.7442
X6.7322Y-4.9212
X6.4666Y-6.0631
X6.4666Y-6.2401
X6.7224Y-6.0631
X6.7224Y-6.2401
X6.5157Y-2.3032
X6.5157Y-2.4802
X6.7715Y-2.3032
X6.7715Y-2.4802
X6.4961Y-4.1143
X6.4961Y-4.2913
X6.7519Y-4.1143
X6.7519Y-4.2913
T5
X1.9177Y-3.2382
X3.2055Y-1.773
X3.2595Y-1.673
X3.3135Y-1.773
X3.3675Y-1.673
X3.4215Y-1.773
X3.4755Y-1.673
X3.5295Y-1.773
X3.5835Y-1.673
X3.6375Y-1.773
X4.5866Y-3.4886
X6.2303Y-9.3461
X2.4311Y-3.6106
X3.8673Y-9.1535
X6.8307Y-9.3461
X2.9252Y-6.9685
X2.2425Y-8.3858
X1.9276Y-2.7067
X4.1705Y-8.6614
T6
X2.0276Y-8.9142
X2.1276Y-9.3142
X2.5378Y-9.3142
X2.6378Y-8.9142
X2.7378Y-9.3142
X3.7469Y-7.9823
X4.1469Y-7.8823
X4.1469Y-8.0823
X1.9276Y-9.3142
T7
X2.9285Y-1.723
X3.9145Y-1.723
T0
M30
